# xmcd CD database file
#
# Track frame offsets:
#	150
#	16562
#	32037
#	53097
#	72032
#	91102
#	111725
#	126635
#	148117
#	162897
#
# Disc length: 2412 seconds
#
# Revision: 1
# Processed by: cddbd v1.5.2PL0 Copyright (c) Steve Scherf et al.
# Submitted via: CDex 1.70beta2
#
DISCID=85096a0a
DTITLE=ワンナイトスタンズ - ワン・オブ・ドリーム
DYEAR=1993
DGENRE=rockabilly
TTITLE0=ライド・オン
TTITLE1=500マイル
TTITLE2=ローリング・エイティーン
TTITLE3=パーティ・ナイト
TTITLE4=ワーキング・ブルース
TTITLE5=クール・ダウン
TTITLE6=トーキョー・レイン・トレイン・ブルース
TTITLE7=オンリー・ワン・ラヴァー
TTITLE8=あばれん坊キッズ
TTITLE9=ドリーム
EXTD=YEAR: 1993
EXTT0=
EXTT1=
EXTT2=
EXTT3=
EXTT4=
EXTT5=
EXTT6=
EXTT7=
EXTT8=
EXTT9=
PLAYORDER=
